<svg width="30" height="31" viewBox="0 0 30 31" fill="none" xmlns="http://www.w3.org/2000/svg">
<g clip-path="url(#clip0_175_564)">
<path d="M15.0245 1.36163C7.26519 1.36163 0.97522 7.6516 0.97522 15.4109C0.97522 23.1702 7.26519 29.4601 15.0245 29.4601C22.7838 29.4601 29.0737 23.1702 29.0737 15.4109C29.0737 7.6516 22.7838 1.36163 15.0245 1.36163ZM11.5853 21.234H8.74036V12.0786H11.5853V21.234ZM10.1453 10.9546C9.24672 10.9546 8.66573 10.318 8.66573 9.53069C8.66573 8.72725 9.26428 8.10967 10.1819 8.10967C11.0995 8.10967 11.6614 8.72725 11.679 9.53069C11.679 10.318 11.0995 10.9546 10.1453 10.9546ZM21.9759 21.234H19.131V16.1602C19.131 14.9792 18.7183 14.1772 17.6894 14.1772C16.9036 14.1772 16.4367 14.7201 16.2304 15.2426C16.1543 15.4285 16.1352 15.6919 16.1352 15.9538V21.2326H13.2888V14.9982C13.2888 13.8552 13.2522 12.8996 13.2142 12.0771H15.686L15.8162 13.3489H15.8733C16.2479 12.7518 17.1655 11.8708 18.7007 11.8708C20.5725 11.8708 21.9759 13.125 21.9759 15.8207V21.234Z" fill="#3D445C"/>
</g>
<defs>
<clipPath id="clip0_175_564">
<rect width="29.2693" height="29.2693" fill="white" transform="translate(0.389832 0.776367)"/>
</clipPath>
</defs>
</svg>
