<svg width="28" height="28" viewBox="0 0 28 28" fill="none" xmlns="http://www.w3.org/2000/svg">
<path d="M25.2994 8.85221C25.9463 8.85221 26.5667 9.10919 27.0241 9.56661C27.4815 10.024 27.7385 10.6444 27.7385 11.2913V16.1695C27.7385 16.8164 27.4815 17.4368 27.0241 17.8942C26.5667 18.3517 25.9463 18.6086 25.2994 18.6086H24.0042C23.7069 20.9664 22.5594 23.1346 20.777 24.7064C18.9946 26.2782 16.6998 27.1455 14.3234 27.1455V24.7064C16.2641 24.7064 18.1253 23.9355 19.4975 22.5632C20.8698 21.191 21.6407 19.3298 21.6407 17.3891V10.0718C21.6407 8.13109 20.8698 6.2699 19.4975 4.89764C18.1253 3.52538 16.2641 2.75445 14.3234 2.75445C12.3827 2.75445 10.5216 3.52538 9.14929 4.89764C7.77702 6.2699 7.00609 8.13109 7.00609 10.0718V18.6086H3.34743C2.70054 18.6086 2.08014 18.3517 1.62272 17.8942C1.1653 17.4368 0.908325 16.8164 0.908325 16.1695V11.2913C0.908325 10.6444 1.1653 10.024 1.62272 9.56661C2.08014 9.10919 2.70054 8.85221 3.34743 8.85221H4.6426C4.94021 6.49469 6.08787 4.32678 7.87024 2.75527C9.65261 1.18376 11.9472 0.31665 14.3234 0.31665C16.6996 0.31665 18.9942 1.18376 20.7766 2.75527C22.559 4.32678 23.7066 6.49469 24.0042 8.85221H25.2994ZM9.15251 18.3464L10.4452 16.2781C11.6076 17.0062 12.9519 17.3913 14.3234 17.3891C15.695 17.3913 17.0393 17.0062 18.2016 16.2781L19.4943 18.3464C17.9446 19.3174 16.1522 19.831 14.3234 19.8282C12.4946 19.831 10.7022 19.3174 9.15251 18.3464Z" fill="#F9995D"/>
</svg>
