<svg width="30" height="30" viewBox="0 0 30 30" fill="none" xmlns="http://www.w3.org/2000/svg">
<g clip-path="url(#clip0_151_417)">
<rect x="0.569214" y="12.3188" width="17.0737" height="17.0738" fill="#7595FD"/>
<path d="M22.5212 19.6362H20.0821V18.4167H10.3256V19.6362H7.88652V18.4167H3.0083V24.5144H27.3994V18.4167H22.5212V19.6362ZM24.9603 9.8798H21.3016V7.44069C21.3016 6.09919 20.204 5.00159 18.8625 5.00159H11.5452C10.2037 5.00159 9.10607 6.09919 9.10607 7.44069V9.8798H5.44741C4.1059 9.8798 3.0083 10.9774 3.0083 12.3189V17.1971H7.88652V14.758H10.3256V17.1971H20.0821V14.758H22.5212V17.1971H27.3994V12.3189C27.3994 10.9774 26.3018 9.8798 24.9603 9.8798ZM18.8625 9.8798H11.5452V7.44069H18.8625V9.8798Z" fill="white"/>
</g>
<defs>
<clipPath id="clip0_151_417">
<rect width="29.2693" height="29.2693" fill="white" transform="translate(0.569214 0.123291)"/>
</clipPath>
</defs>
</svg>
