<svg width="30" height="30" viewBox="0 0 30 30" fill="none" xmlns="http://www.w3.org/2000/svg">
<g clip-path="url(#clip0_151_429)">
<rect x="0.221741" y="12.3188" width="17.0737" height="17.0738" fill="#7595FD"/>
<path d="M25.8323 17.197C25.8323 16.5263 25.2835 15.9775 24.6128 15.9775H22.1737V18.4166H24.6128C25.2835 18.4166 25.8323 17.8678 25.8323 17.197ZM24.6128 20.8557H22.1737V23.2948H24.6128C25.2835 23.2948 25.8323 22.746 25.8323 22.0753C25.8323 21.4045 25.2835 20.8557 24.6128 20.8557ZM14.8563 17.197H12.4172V22.0753H14.8563C14.8563 23.4168 15.9539 24.5144 17.2955 24.5144H20.9541V14.7579H17.2955C15.9539 14.7579 14.8563 15.8555 14.8563 17.197Z" fill="white"/>
<path d="M6.31948 15.9776C6.31948 14.6361 7.41708 13.5385 8.75859 13.5385H10.5879C12.9417 13.5385 14.8564 11.6238 14.8564 9.27002C14.8564 6.91629 12.9417 5.00159 10.5879 5.00159H6.31948C5.64872 5.00159 5.09992 5.55039 5.09992 6.22114C5.09992 6.89189 5.64872 7.44069 6.31948 7.44069H10.5879C11.6001 7.44069 12.4172 8.25779 12.4172 9.27002C12.4172 10.2823 11.6001 11.0994 10.5879 11.0994H8.75859C6.06337 11.0994 3.88037 13.2824 3.88037 15.9776C3.88037 18.6728 6.06337 20.8558 8.75859 20.8558H11.1977V18.4167H8.75859C7.41708 18.4167 6.31948 17.3191 6.31948 15.9776Z" fill="white"/>
</g>
<defs>
<clipPath id="clip0_151_429">
<rect width="29.2693" height="29.2693" fill="white" transform="translate(0.22168 0.123291)"/>
</clipPath>
</defs>
</svg>
