<svg width="30" height="30" viewBox="0 0 30 30" fill="none" xmlns="http://www.w3.org/2000/svg">
<g clip-path="url(#clip0_151_405)">
<rect x="0.57843" y="12.752" width="17.0737" height="17.0738" fill="#7595FD"/>
<path d="M24.3598 4.21516C23.5513 4.21581 22.7762 4.53724 22.2046 5.10887C21.6329 5.68051 21.3115 6.45563 21.3109 7.26404C21.3109 7.69943 21.406 8.11285 21.5719 8.4897L19.1876 11.1715C18.3777 10.6124 17.4168 10.313 16.4327 10.3129C15.5302 10.3129 14.696 10.5764 13.9704 11.0032L11.1971 8.23115L11.1691 8.2592C11.4081 7.77382 11.5544 7.23356 11.5544 6.65427C11.5544 5.93065 11.3399 5.22329 10.9378 4.62163C10.5358 4.01996 9.96443 3.55102 9.29589 3.27411C8.62736 2.99719 7.89173 2.92474 7.18202 3.06591C6.4723 3.20708 5.82039 3.55553 5.30872 4.0672C4.79705 4.57888 4.44859 5.23079 4.30742 5.9405C4.16625 6.65021 4.23871 7.38584 4.51562 8.05438C4.79254 8.72291 5.26148 9.29431 5.86314 9.69633C6.4648 10.0984 7.17217 10.3129 7.89578 10.3129C8.47507 10.3129 9.01412 10.1666 9.50072 9.92755L9.47267 9.9556L12.2459 12.7276C11.7979 13.4716 11.559 14.3227 11.5544 15.1911C11.5544 16.407 12.0179 17.5071 12.7557 18.3632L9.61292 21.5048C9.26067 21.3638 8.88497 21.2905 8.50556 21.2889C6.82502 21.2889 5.45668 22.656 5.45668 24.3378C5.45668 26.0196 6.82502 27.3867 8.50556 27.3867C10.1861 27.3867 11.5544 26.0196 11.5544 24.3378C11.5544 23.9463 11.474 23.5744 11.3386 23.2292L14.7997 19.7681C15.3131 19.9511 15.857 20.0694 16.4327 20.0694C19.123 20.0694 21.3109 17.8815 21.3109 15.1911C21.3109 14.4155 21.1121 13.6923 20.7889 13.0399L23.3707 10.1337C23.6829 10.241 24.0122 10.3129 24.3598 10.3129C26.0415 10.3129 27.4086 8.94581 27.4086 7.26404C27.4086 5.58228 26.0415 4.21516 24.3598 4.21516ZM16.4327 17.6302C15.0875 17.6302 13.9936 16.5363 13.9936 15.1911C13.9936 13.846 15.0875 12.752 16.4327 12.752C17.7778 12.752 18.8718 13.846 18.8718 15.1911C18.8718 16.5363 17.7778 17.6302 16.4327 17.6302Z" fill="white"/>
</g>
<defs>
<clipPath id="clip0_151_405">
<rect width="29.2693" height="29.2693" fill="white" transform="translate(0.57843 0.556519)"/>
</clipPath>
</defs>
</svg>
